<?xml version="1.0" encoding="utf-8"?>
<!-- Generator: Adobe Illustrator 15.1.0, SVG Export Plug-In . SVG Version: 6.00 Build 0)  -->
<!DOCTYPE svg PUBLIC "-//W3C//DTD SVG 1.1//EN" "http://www.w3.org/Graphics/SVG/1.1/DTD/svg11.dtd">
<svg version="1.1" id="Layer_1" xmlns="http://www.w3.org/2000/svg" xmlns:xlink="http://www.w3.org/1999/xlink" x="0px" y="0px"
	 width="100px" height="100px" viewBox="0 0 100 100" enable-background="new 0 0 100 100" xml:space="preserve">
<path fill="#DFE34E" d="M33.731,5.452c24.369-7.807,50.605,6.1,58.6,31.059c4.839,15.112,1.881,30.81-6.614,42.579
	c1.254,2.495,4.635,7.762,10.572,7.12c1.447-0.155,3.859-0.214,2.533,1.728c-2.449,3.578-7.637,5.094-11.67,6.025
	c-4.694,1.084-10.067,1.312-14.283-1.389c-0.413-0.266-0.766-0.536-1.061-0.812c-2.828,1.658-5.879,3.034-9.127,4.076
	c-24.369,7.805-50.604-6.102-58.599-31.061C-3.91,39.818,9.362,13.258,33.731,5.452"/>
<g>
	<g>
		<path fill="#516891" d="M70,40H25c-1.933,0-3.5-1.567-3.5-3.5S23.067,33,25,33h45c1.933,0,3.5,1.567,3.5,3.5S71.933,40,70,40z"/>
	</g>
	<g>
		<path fill="#516891" d="M70,69H25c-1.933,0-3.5-1.567-3.5-3.5S23.067,62,25,62h45c1.933,0,3.5,1.567,3.5,3.5S71.933,69,70,69z"/>
	</g>
	<g>
		<path fill="#516891" d="M74,55H22c-1.933,0-3.5-1.567-3.5-3.5c0-1.933,1.567-3.5,3.5-3.5h52c1.933,0,3.5,1.567,3.5,3.5
			C77.5,53.433,75.933,55,74,55z"/>
	</g>
</g>
</svg>
