<?xml version="1.0" encoding="utf-8"?>
<!-- Generator: Adobe Illustrator 15.1.0, SVG Export Plug-In . SVG Version: 6.00 Build 0)  -->
<!DOCTYPE svg PUBLIC "-//W3C//DTD SVG 1.1//EN" "http://www.w3.org/Graphics/SVG/1.1/DTD/svg11.dtd">
<svg version="1.1" id="Layer_1" xmlns="http://www.w3.org/2000/svg" xmlns:xlink="http://www.w3.org/1999/xlink" x="0px" y="0px"
	 width="100px" height="100px" viewBox="0 0 100 100" enable-background="new 0 0 100 100" xml:space="preserve">
<path fill="#DFE34E" d="M33.731,5.452c24.368-7.807,50.605,6.1,58.6,31.059c4.839,15.112,1.881,30.809-6.614,42.579
	c1.254,2.495,4.634,7.761,10.572,7.12c1.447-0.155,3.86-0.214,2.533,1.728c-2.449,3.577-7.637,5.093-11.669,6.025
	c-4.695,1.084-10.068,1.312-14.284-1.389c-0.413-0.265-0.765-0.536-1.06-0.812c-2.829,1.658-5.879,3.034-9.127,4.076
	c-24.369,7.805-50.605-6.102-58.599-31.061C-3.91,39.818,9.362,13.258,33.731,5.452"/>
<g>
	
		<line fill="none" stroke="#516891" stroke-width="7" stroke-linecap="round" stroke-miterlimit="10" x1="25" y1="36.5" x2="70" y2="36.5"/>
	
		<line fill="none" stroke="#516891" stroke-width="7" stroke-linecap="round" stroke-miterlimit="10" x1="25" y1="65.5" x2="70" y2="65.5"/>
	
		<line fill="none" stroke="#516891" stroke-width="7" stroke-linecap="round" stroke-miterlimit="10" x1="22" y1="51.5" x2="74" y2="51.5"/>
</g>
</svg>
