<?xml version="1.0" encoding="utf-8"?>
<!-- Generator: Adobe Illustrator 15.1.0, SVG Export Plug-In . SVG Version: 6.00 Build 0)  -->
<!DOCTYPE svg PUBLIC "-//W3C//DTD SVG 1.1//EN" "http://www.w3.org/Graphics/SVG/1.1/DTD/svg11.dtd">
<svg version="1.1" id="Layer_1" xmlns="http://www.w3.org/2000/svg" xmlns:xlink="http://www.w3.org/1999/xlink" x="0px" y="0px"
	 width="100px" height="100px" viewBox="0 0 100 100" enable-background="new 0 0 100 100" xml:space="preserve">
<path fill="#DFE34E" d="M66.652,5.171c-24.434-7.827-50.74,6.116-58.756,31.142c-4.854,15.153-1.887,30.892,6.63,42.693
	c-1.258,2.503-4.645,7.782-10.6,7.141c-1.451-0.155-3.871-0.215-2.54,1.731c2.456,3.588,7.658,5.106,11.701,6.04
	c4.707,1.089,10.094,1.316,14.322-1.391c0.415-0.268,0.767-0.538,1.063-0.814c2.837,1.664,5.894,3.043,9.151,4.087
	c24.434,7.827,50.74-6.116,58.756-31.144C104.396,39.63,91.088,12.998,66.652,5.171"/>
<g enable-background="new    ">
	<path fill="#516891" d="M39.492,32.337c0.761-0.637,1.588-1.234,2.483-1.789s1.855-1.043,2.884-1.465
		c1.028-0.421,2.133-0.75,3.315-0.987c1.182-0.236,2.462-0.355,3.839-0.355c1.933,0,3.676,0.257,5.229,0.771
		c1.552,0.514,2.873,1.25,3.963,2.206s1.928,2.107,2.514,3.454s0.879,2.843,0.879,4.487c0,1.583-0.216,2.941-0.647,4.071
		c-0.432,1.131-0.982,2.118-1.65,2.961c-0.669,0.843-1.398,1.568-2.19,2.174c-0.791,0.606-1.541,1.177-2.251,1.712
		c-0.709,0.534-1.326,1.059-1.851,1.572c-0.523,0.515-0.848,1.091-0.971,1.728l-0.864,4.317h-6.538l-0.679-4.965
		c-0.021-0.124-0.036-0.247-0.046-0.37c-0.011-0.124-0.015-0.247-0.015-0.37c0-0.904,0.216-1.696,0.647-2.375s0.977-1.3,1.635-1.866
		c0.658-0.565,1.367-1.11,2.128-1.635c0.76-0.524,1.47-1.09,2.128-1.696s1.203-1.285,1.635-2.036c0.432-0.75,0.647-1.64,0.647-2.668
		c0-1.233-0.406-2.215-1.218-2.945c-0.812-0.729-1.928-1.095-3.347-1.095c-1.09,0-2,0.113-2.729,0.339
		c-0.73,0.226-1.357,0.478-1.881,0.755c-0.524,0.278-0.982,0.53-1.373,0.756c-0.391,0.227-0.781,0.339-1.172,0.339
		c-0.884,0-1.542-0.38-1.974-1.141L39.492,32.337z M45.167,68.33c0-0.74,0.139-1.43,0.417-2.066
		c0.278-0.638,0.658-1.192,1.141-1.666c0.483-0.473,1.054-0.848,1.712-1.126c0.658-0.277,1.377-0.416,2.159-0.416
		c0.76,0,1.469,0.139,2.128,0.416c0.657,0.278,1.233,0.653,1.728,1.126c0.492,0.474,0.879,1.028,1.156,1.666
		c0.277,0.637,0.416,1.326,0.416,2.066s-0.139,1.434-0.416,2.081c-0.277,0.648-0.664,1.209-1.156,1.682
		c-0.494,0.473-1.07,0.843-1.728,1.11c-0.659,0.267-1.368,0.4-2.128,0.4c-0.782,0-1.501-0.134-2.159-0.4
		c-0.658-0.268-1.229-0.638-1.712-1.11c-0.483-0.473-0.863-1.033-1.141-1.682C45.306,69.764,45.167,69.07,45.167,68.33z"/>
</g>
</svg>
