<?xml version="1.0" encoding="utf-8"?>
<!-- Generator: Adobe Illustrator 15.1.0, SVG Export Plug-In . SVG Version: 6.00 Build 0)  -->
<!DOCTYPE svg PUBLIC "-//W3C//DTD SVG 1.1//EN" "http://www.w3.org/Graphics/SVG/1.1/DTD/svg11.dtd">
<svg version="1.1" id="Layer_1" xmlns="http://www.w3.org/2000/svg" xmlns:xlink="http://www.w3.org/1999/xlink" x="0px" y="0px"
	 width="100px" height="100px" viewBox="0 0 100 100" enable-background="new 0 0 100 100" xml:space="preserve">
<path fill="#DFE34E" d="M66.652,5.171C42.219-2.656,15.912,11.287,7.896,36.313c-4.854,15.153-1.887,30.892,6.63,42.693
	c-1.258,2.503-4.645,7.782-10.6,7.14c-1.451-0.155-3.871-0.214-2.54,1.732c2.456,3.588,7.658,5.106,11.701,6.04
	c4.707,1.089,10.094,1.317,14.322-1.39c0.415-0.268,0.767-0.539,1.063-0.815c2.837,1.664,5.894,3.043,9.151,4.087
	c24.434,7.827,50.741-6.116,58.756-31.144C104.396,39.63,91.088,12.998,66.652,5.171"/>
<text transform="matrix(1 0 0 1 38.3208 73.1719)" fill="#516891" font-family="'Lato-Black'" font-size="61.6837">?</text>
</svg>
