<?xml version="1.0" encoding="UTF-8" standalone="no"?>
<!-- Created with Inkscape (http://www.inkscape.org/) -->

<svg
   xmlns:dc="http://purl.org/dc/elements/1.1/"
   xmlns:cc="http://creativecommons.org/ns#"
   xmlns:rdf="http://www.w3.org/1999/02/22-rdf-syntax-ns#"
   xmlns:svg="http://www.w3.org/2000/svg"
   xmlns="http://www.w3.org/2000/svg"
   xmlns:sodipodi="http://sodipodi.sourceforge.net/DTD/sodipodi-0.dtd"
   xmlns:inkscape="http://www.inkscape.org/namespaces/inkscape"
   xml:space="preserve"
   height="600"
   width="1200"
   version="1.1"
   id="svg3037"
   inkscape:version="0.48.2 r9819"
   sodipodi:docname="Silver_Fern_flag.svg"
   inkscape:export-filename="/Users/wombleton/Downloads/Silver_Fern_flag.png"
   inkscape:export-xdpi="18"
   inkscape:export-ydpi="18"><defs
   id="defs3049" /><sodipodi:namedview
   pagecolor="#ffffff"
   bordercolor="#666666"
   borderopacity="1"
   objecttolerance="10"
   gridtolerance="10"
   guidetolerance="10"
   inkscape:pageopacity="0"
   inkscape:pageshadow="2"
   inkscape:window-width="1049"
   inkscape:window-height="747"
   id="namedview3047"
   showgrid="false"
   inkscape:zoom="0.29333333"
   inkscape:cx="462.3301"
   inkscape:cy="300"
   inkscape:window-x="0"
   inkscape:window-y="0"
   inkscape:window-maximized="0"
   inkscape:current-layer="svg3037" /><metadata
   id="metadata3039"><rdf:RDF><cc:Work
       rdf:about=""><dc:format>image/svg+xml</dc:format><dc:type
         rdf:resource="http://purl.org/dc/dcmitype/StillImage" /><dc:title /></cc:Work></rdf:RDF></metadata><path
   style="fill:none;fill-rule:nonzero"
   inkscape:connector-curvature="0"
   id="path3043"
   d="m 1199.9578,599.9952 -1200.000003,0 0,-600 1200.000003,0 0,600 z" /><path
   style="fill:#000000;fill-rule:nonzero;stroke:#ffff00;stroke-opacity:1;fill-opacity:1"
   inkscape:connector-curvature="0"
   id="path3045"
   d="m 945.1953,51.1077 c 0,0 -29.895,45.04375 -108.55875,71.39625 -81.23875,27.14875 -178.675,36.21875 -297.2125,82.23125 -117.4825,45.6575 -194.0875,95.32125 -194.0875,95.32125 0,0 3.91,42.8325 10.51637,77.74 8.2735,43.65875 19.34125,77.635 19.34125,77.635 0,0 -14.365,17.55125 -39.345,38.585 -27.55375,23.19 -67.805,51.5525 -67.805,51.5525 21.63375,0 36.10875,-1.39725 54.225,0.31863 20.42,-22.3325 40.73,-45.05626 61.0025,-68.05 33.13,-39.05 77.035,-92.19625 125.625,-134.675 104.0975,-91.0025 258.2875,-150.3875 300.7125,-172.0375 70.465,-35.96125 85.01375,-53.12125 85.01375,-53.12125 1.27475,-0.82115 2.5985,-1.59338 3.8855,-2.40225 0,0 -14.01,21.425 -80.76,58.51375 -41.62375,23.0675 -194.325,91.69375 -294.1625,187.22499 -39.23375,37.60375 -70.74625,77.09626 -94.4275,111.07125 20.4325,-0.61278 43.61,-7.37862 83.76375,-5.88325 49.44375,0 94.3775,8.57975 94.3775,8.57975 0,0 9.03325,-114.25874 223.85,-256.16249 124.95875,-82.59875 114.0625,-167.850005 114.0625,-167.850005 z" /><text
   xml:space="preserve"
   style="font-size:900px;font-style:normal;font-variant:normal;font-weight:bold;font-stretch:normal;line-height:125%;letter-spacing:0px;word-spacing:0px;fill:#000000;fill-opacity:1;stroke:none;font-family:Zapfino;-inkscape-font-specification:Zapfino"
   x="873.27319"
   y="515.55176"
   id="text3051-4"
   sodipodi:linespacing="125%"><tspan
     sodipodi:role="line"
     id="tspan3053-4"
     x="873.27319"
     y="515.55176"
     style="font-size:450px;font-style:normal;font-variant:normal;font-weight:normal;font-stretch:normal;fill:#000000;font-family:Helvetica CY;-inkscape-font-specification:Helvetica CY">/&gt;</tspan></text>

<text
   xml:space="preserve"
   style="font-size:900px;font-style:normal;font-variant:normal;font-weight:bold;font-stretch:normal;line-height:125%;letter-spacing:0px;word-spacing:0px;fill:#000000;fill-opacity:1;stroke:none;font-family:Zapfino;-inkscape-font-specification:Zapfino"
   x="8.3007812"
   y="520.60547"
   id="text3051-4-1"
   sodipodi:linespacing="125%"><tspan
     sodipodi:role="line"
     id="tspan3053-4-2"
     x="8.3007812"
     y="520.60547"
     style="font-size:450px;font-style:normal;font-variant:normal;font-weight:normal;font-stretch:normal;fill:#000000;font-family:Helvetica CY;-inkscape-font-specification:Helvetica CY">&lt;</tspan></text>

</svg>