<?xml version="1.0" encoding="utf-8"?>
<!-- Generator: Adobe Illustrator 15.1.0, SVG Export Plug-In . SVG Version: 6.00 Build 0)  -->
<!DOCTYPE svg PUBLIC "-//W3C//DTD SVG 1.1//EN" "http://www.w3.org/Graphics/SVG/1.1/DTD/svg11.dtd">
<svg version="1.1" id="Layer_1" xmlns="http://www.w3.org/2000/svg" xmlns:xlink="http://www.w3.org/1999/xlink" x="0px" y="0px"
	 width="50px" height="50px" viewBox="0 0 50 50" enable-background="new 0 0 50 50" xml:space="preserve">
<g>
	<path fill="#F37E5B" d="M29.462,12.35c-1.405,0.528-2.465,2.262-3.176,3.425l-0.181,0.295c-0.844,1.365-1.607,2.898-2.4,4.826
		c-0.408,0.989-0.749,2.021-1.038,3.137c0.865-0.136,1.608-0.396,2.302-0.805c0.342-0.201,0.682-0.405,1.021-0.611
		c1.161-0.703,2.363-1.428,3.679-2.002c0.04-0.623,0.092-1.247,0.145-1.876c0.143-1.646,0.252-3.255,0.047-4.836
		C29.798,13.408,29.715,12.76,29.462,12.35z"/>
	<path fill="#F37E5B" d="M33.716,1.827C21.521-2.08,8.392,4.878,4.391,17.369C1.969,24.931,3.45,32.787,7.7,38.676
		c-0.627,1.25-2.318,3.885-5.29,3.564c-0.725-0.079-1.933-0.107-1.268,0.863c1.226,1.791,3.822,2.549,5.839,3.016
		c2.35,0.543,5.039,0.658,7.148-0.694c0.207-0.133,0.382-0.269,0.531-0.406c1.416,0.83,2.941,1.519,4.566,2.038
		c12.195,3.907,25.323-3.052,29.324-15.542C52.552,19.024,45.911,5.733,33.716,1.827z M34.144,34.133
		c-0.429,0.369-1.088,0.589-1.765,0.589c-1.084-0.001-1.881-0.547-1.982-1.359c-0.339-2.706-0.604-5.84-0.788-9.313
		c-0.004-0.06-0.006-0.12-0.008-0.179c-0.364,0.239-0.733,0.489-1.113,0.747c-2.028,1.374-4.118,2.792-6.553,3.202
		c-0.244,1.774-0.375,3.53-0.512,5.384c-0.113,1.491-0.046,1.481-0.227,3.031c-0.126,1.099-2.18,1.309-3.7,1.309
		c-0.895,0-1.235-0.093-1.655-0.452c-0.292-0.251-0.32-1.2-0.278-1.553c0.891-7.691,2.173-11.429,4.684-17.043
		c1.01-2.256,2.007-3.997,3.137-5.478c1.318-1.724,3.007-3.538,5.559-3.925c1.423-0.216,2.598,0.044,3.472,0.763
		c2.156,1.772,1.889,5.842,1.76,7.798c-0.038,0.586-0.09,1.161-0.146,1.738c-0.115,1.248-0.233,2.539-0.184,3.812
		c0.131,3.237,0.392,6.41,0.803,9.701C34.706,33.373,34.532,33.799,34.144,34.133z"/>
</g>
</svg>
