<?xml version="1.0" encoding="utf-8"?>
<!-- Generator: Adobe Illustrator 15.1.0, SVG Export Plug-In . SVG Version: 6.00 Build 0)  -->
<!DOCTYPE svg PUBLIC "-//W3C//DTD SVG 1.1//EN" "http://www.w3.org/Graphics/SVG/1.1/DTD/svg11.dtd">
<svg version="1.1" id="Layer_1" xmlns="http://www.w3.org/2000/svg" xmlns:xlink="http://www.w3.org/1999/xlink" x="0px" y="0px"
	 width="100px" height="100px" viewBox="0 0 100 100" enable-background="new 0 0 100 100" xml:space="preserve">
<circle opacity="0.91" fill="#F37E5B" cx="49.992" cy="50.25" r="46.871"/>
<g enable-background="new    ">
	<path fill="#516891" d="M70.115,52.309l-2.047,2.045c-0.654,0.655-1.555,1.037-2.482,1.037c-0.927,0-1.828-0.382-2.455-1.037
		l-8.021-7.994v19.207c0,1.966-1.637,3.192-3.491,3.192h-3.492c-1.855,0-3.492-1.228-3.492-3.192V46.359l-8.021,7.995
		c-0.627,0.654-1.528,1.037-2.456,1.037c-0.928,0-1.828-0.383-2.456-1.037l-2.046-2.047c-0.655-0.654-1.037-1.527-1.037-2.456
		s0.382-1.827,1.037-2.482l17.761-17.761c0.627-0.655,1.528-1.009,2.456-1.009c0.928,0,1.828,0.354,2.481,1.009l17.763,17.761
		c0.627,0.655,1.009,1.555,1.009,2.482C71.125,50.777,70.742,51.652,70.115,52.309z"/>
</g>
</svg>
