<?xml version="1.0" encoding="utf-8"?>
<!-- Generator: Adobe Illustrator 15.1.0, SVG Export Plug-In . SVG Version: 6.00 Build 0)  -->
<!DOCTYPE svg PUBLIC "-//W3C//DTD SVG 1.1//EN" "http://www.w3.org/Graphics/SVG/1.1/DTD/svg11.dtd">
<svg version="1.1" id="Layer_1" xmlns="http://www.w3.org/2000/svg" xmlns:xlink="http://www.w3.org/1999/xlink" x="0px" y="0px"
	 width="200px" height="200px" viewBox="0 0 200 200" enable-background="new 0 0 200 200" xml:space="preserve">
<g>
	<path fill="#FFFFFF" d="M86.979,112.672c-2.317,1.188-4.082,4.886-5.272,7.376l-0.308,0.647c-1.441,2.977-2.738,6.318-4.085,10.516
		c-0.344,1.069-0.665,2.175-0.956,3.297c1.477-0.292,2.745-0.857,3.925-1.748c0.569-0.428,1.135-0.867,1.702-1.303
		c1.741-1.348,3.54-2.736,5.469-3.907l0.071-1.088c0.242-3.588,0.43-7.094,0.081-10.533C87.5,114.887,87.365,113.55,86.979,112.672z
		"/>
	<path fill="#FFFFFF" d="M145.051,107.266c-0.001-0.004-0.006-0.006-0.007-0.006c-2.771-2.521-8.862-2.922-10.939,1.957
		c-1.703,4-2.666,13.165,4.156,12.461c2.904-0.299,5.803-2.63,6.828-5.339c0.084-0.221,0.405-2.106,0.465-3.06
		c-0.043-0.463-0.087-0.93-0.131-1.402C145.274,110.332,145.152,108.799,145.051,107.266z"/>
	<path fill="#FFFFFF" d="M65.912,73.412c0.273-4.046,0.484-8,0.092-11.887c-0.123-1.21-0.283-2.804-0.767-3.81
		c-2.698,1.294-4.732,5.556-6.097,8.419l-0.349,0.723c-1.62,3.354-3.084,7.124-4.607,11.86c-0.782,2.436-1.436,4.968-1.991,7.711
		c1.661-0.332,3.087-0.974,4.419-1.979c0.656-0.493,1.306-0.997,1.958-1.503c2.229-1.726,4.537-3.511,7.061-4.921
		C65.712,76.494,65.808,74.961,65.912,73.412z"/>
	<path fill="#FFFFFF" d="M133.304,10.047C83.647-5.859,30.184,22.475,13.893,73.336c-9.864,30.794-3.835,62.781,13.475,86.763
		c-2.556,5.087-9.44,15.815-21.541,14.512c-2.951-0.318-7.868-0.437-5.163,3.518c4.991,7.293,15.562,10.381,23.779,12.278
		c9.565,2.21,20.514,2.678,29.105-2.827c0.844-0.541,1.559-1.094,2.161-1.656c5.766,3.382,11.979,6.186,18.598,8.307
		c49.657,15.905,103.12-12.432,119.41-63.292C210.008,80.08,182.962,25.952,133.304,10.047z M102.432,55.877
		c0.302-4.162,0.615-8.465,0.876-12.697c0.116-1.891,1.705-2.88,3.217-2.88c0.886,0,1.707,0.333,2.251,0.912
		c0.512,0.546,0.757,1.265,0.705,2.08c-0.258,4.235-0.569,8.54-0.873,12.703c-0.208,2.844-0.413,5.69-0.605,8.536
		c2.357-2.956,4.416-6.494,6.137-10.548c0.511-1.201,1.677-1.946,3.047-1.946c1.118,0,2.146,0.5,2.679,1.307
		c0.472,0.709,0.526,1.584,0.156,2.458c-1.988,4.678-4.199,8.58-6.754,11.911c2.285,7.366,5.396,11.758,8.99,12.69
		c1.739,0.451,2.357,1.921,2.197,3.178c-0.171,1.355-1.251,2.729-2.979,2.729c-0.273,0-0.556-0.039-0.834-0.112
		c-6.156-1.597-9.923-7.881-12.089-13.349c-0.087,0.079-0.172,0.155-0.261,0.233c-0.258,0.225-0.537,0.399-0.84,0.528
		c-0.337,6.617-0.463,12.175-0.395,17.449c0.009,0.809-0.266,1.521-0.796,2.058c-0.564,0.571-1.389,0.898-2.27,0.898
		c-1.529,0-3.09-1.008-3.115-2.934C100.727,79.307,101.594,67.396,102.432,55.877z M76.859,92.824
		c0.557-0.98,1.711-1.639,2.874-1.639c1.06,0,1.984,0.532,2.539,1.459c1.23,2.063,3.967,2.457,6.415,1.372
		c4.391-1.946,5.146-5.742,2.191-9.647c-1.34-1.774-2.329-2.537-4.451-3.204c-0.388-0.123-0.771-0.242-1.134-0.373
		c-2.235-0.786-4.734-1.828-6.081-4.255c-1.307-2.364-0.946-5.692,0.866-7.913c1.75-2.147,4.73-3.33,8.386-3.33
		c1.975,0,4.058,0.35,5.866,0.985c1.717,0.602,2.264,2.171,2.045,3.457c-0.25,1.463-1.383,2.483-2.759,2.483
		c-0.342-0.002-0.698-0.064-1.049-0.189c-0.292-0.103-0.575-0.209-0.857-0.316c-1.03-0.39-1.917-0.725-2.947-0.725
		c-0.812,0-1.667,0.218-2.612,0.668c-0.856,0.41-1.48,1.142-1.486,1.745c-0.003,0.385,0.275,0.718,0.819,0.991
		c0.91,0.452,1.901,0.767,2.948,1.101c1.514,0.481,3.08,0.981,4.455,1.939c2.078,1.445,5.365,4.72,5.9,7.817
		c0.954,5.513-2.164,12.574-8.327,14.297c-2.051,0.574-3.798,0.854-5.339,0.854c-3.61,0-6.285-1.542-8.177-4.715
		C76.386,94.754,76.355,93.71,76.859,92.824z M50.785,95.733c-0.469,4.363-0.72,8.679-0.983,13.235
		c-0.214,3.663-0.434,7.452-0.78,11.262c-0.244,2.697-3.477,4.15-6.396,4.15c-1.717,0-3.109-0.487-3.918-1.37
		c-0.56-0.615-0.815-1.396-0.736-2.257c1.708-18.906,4.751-34.139,9.572-47.937c1.938-5.546,3.852-9.825,6.023-13.465
		c2.529-4.236,5.773-8.695,10.671-9.647c2.729-0.53,4.99,0.109,6.667,1.875c4.137,4.357,3.624,14.36,3.378,19.168
		c-0.074,1.438-0.175,2.854-0.28,4.271c-0.223,3.067-0.451,6.242-0.354,9.366c0.25,7.959,0.752,15.76,1.542,23.85
		c0.113,1.154-0.223,2.198-0.97,3.023c-0.821,0.903-2.087,1.444-3.386,1.444c-2.082-0.002-3.61-1.343-3.806-3.339
		c-0.649-6.653-1.16-14.355-1.512-22.893c-0.008-0.146-0.013-0.294-0.016-0.441c-0.7,0.587-1.408,1.201-2.138,1.837
		C59.472,91.241,55.459,94.727,50.785,95.733z M95.078,159.906c-0.747,0.822-1.9,1.094-3.081,1.094h-0.001
		c-1.903,0-3.301-1.006-3.479-2.836c-0.575-5.922-1.028-12.648-1.343-20.214c-0.038-0.865-0.053-1.695-0.045-2.689
		c-0.24,0.208-0.479,0.444-0.719,0.654c-3.607,3.132-7.331,6.377-11.718,7.121c-0.687,4.929-0.969,9.813-1.267,14.966
		c-0.189,3.263-0.385,6.638-0.689,10.032c-0.223,2.452-3.144,3.778-5.781,3.778c-1.552,0-2.814-0.445-3.551-1.251
		c-0.518-0.566-0.752-1.284-0.68-2.081c1.518-16.79,4.221-30.317,8.502-42.573c1.72-4.926,3.423-8.731,5.355-11.97
		c2.255-3.781,5.152-7.758,9.54-8.613c2.458-0.478,4.498,0.103,6.011,1.696c3.706,3.899,3.246,12.812,3.025,17.093
		c-0.063,1.271-0.156,2.528-0.246,3.784c-0.198,2.724-0.4,5.537-0.315,8.311c0.221,7.05,0.668,13.861,1.37,21.047
		C96.066,158.311,95.759,159.154,95.078,159.906z M124.107,128.902l-0.059,0.516c-0.395,3.685-0.994,9.253-6.795,10.507
		c-0.409,0.088-0.811,0.135-1.191,0.135c-2.005,0-3.347-1.194-4.342-2.762c-0.88,3.999-2.447,7.462-6.137,8.52
		c-0.466,0.133-0.939,0.199-1.409,0.199c-2.981,0-5.287-2.629-5.793-5.172c-0.521-2.609-0.547-5.321-0.574-7.943l-0.004-0.482
		c-0.022-2.139,0.051-4.301,0.121-6.392c0.053-1.57,0.104-3.143,0.118-4.718c0.023-2.406,1.806-3.703,3.477-3.703
		c0.845,0,1.625,0.324,2.193,0.917c0.458,0.479,0.994,1.357,0.934,2.833l-0.041,0.979c-0.4,9.262-0.378,14.399,0.057,15.271
		c0.04,0.071,0.26,0.177,0.609,0.177c0.18,0,0.36-0.027,0.49-0.074c0.562-0.212,1.071-0.698,1.393-1.337
		c0.735-1.455,0.839-3.212,0.938-4.91l0.01-0.14c0.085-1.458,0.041-2.957-0.004-4.408c-0.034-1.146-0.068-2.332-0.041-3.507
		c0.045-2.002,1.974-3.348,3.746-3.348c0.847,0,1.596,0.309,2.11,0.869c0.391,0.428,0.833,1.216,0.718,2.534
		c-0.226,2.532-0.115,7.087,0.677,9.051l0.078,0.2c0.292,0.743,0.472,1.096,0.721,1.096c0.09,0,0.254-0.024,0.514-0.143l0.198-0.068
		c0.021-0.007,0.501-0.358,0.748-2.725c0.182-1.769,0.2-14.471,0.026-18.618c-0.057-1.383,0.504-2.27,0.983-2.771
		c0.656-0.683,1.583-1.078,2.543-1.078c1.491,0,3.143,1.026,3.236,3.281C124.614,117.852,124.759,123.032,124.107,128.902z
		 M151.09,122.542c-0.453,0.653-1.229,1.043-2.077,1.043c-0.577,0-1.133-0.181-1.604-0.504c-2.896,3.109-7.348,5.22-11.151,5.22
		c-2.859,0-5.187-1.131-6.73-3.275c-3.937-5.458-3.147-13.286-0.334-18.197c2.532-4.42,6.584-6.954,11.121-6.954
		c1.21,0,2.432,0.181,3.643,0.542c0.004-0.187,0.006-0.372,0.01-0.558c0.051-1.967,1.957-3.143,3.77-3.143
		c0.907,0,1.695,0.296,2.22,0.835c0.453,0.467,0.684,1.085,0.667,1.788c-0.234,8.792-0.117,18.601,0.668,20.693
		C151.64,120.961,151.567,121.854,151.09,122.542z M175.575,122.543c-0.991,8.323-3.03,17.479-10.638,22.247
		c-0.645,0.402-1.274,0.611-1.873,0.611c-1.094,0-1.974-0.694-2.293-1.809c-0.396-1.377,0.104-3.446,2.143-4.721
		c4.766-2.987,5.04-9.959,5.282-16.107c0.048-1.198,0.093-2.345,0.171-3.408c0.083-1.154,0.148-2.481,0.195-4.03
		c-1.65,1.042-3.583,1.695-5.767,1.948c-2.65,0.307-5.45-0.796-7.231-2.81c-1.369-1.548-2.138-3.617-2.413-6.508
		c-0.348-3.613,0.179-8.275,0.599-12.022l0.176-1.578c0.243-2.252,2.212-3.429,4.033-3.429c1.085,0,2.071,0.405,2.706,1.112
		c0.591,0.657,0.847,1.526,0.741,2.51c-0.158,1.468-0.447,2.976-0.726,4.437c-0.521,2.736-1.062,5.568-0.766,8.209
		c0.169,1.525,0.489,3.151,1.568,3.677c0.262,0.127,0.588,0.188,0.967,0.188c1.226,0,2.646-0.642,3.491-1.194
		c0.313-0.204,1.988-1.64,2.706-3.062c-0.012-2.893-0.055-5.826-0.094-8.571c-0.04-2.689-0.075-5.195-0.08-7.306
		c-0.001-0.916,0.322-1.73,0.94-2.348c0.72-0.722,1.814-1.137,3.004-1.137c2.069,0,4.164,1.251,4.17,3.641
		C176.606,98.962,176.636,113.624,175.575,122.543z"/>
</g>
</svg>
